# This file uses centimeters as units for non-parametric coordinates.

mtllib floor_hole_piece.mtl
g default
v -27.758545 -0.310016 27.809494
v 28.694510 -0.310016 27.809494
v 28.694510 0.310016 27.809494
v -27.758545 0.310016 27.809494
v -27.758545 -0.310016 -28.651787
v -27.758545 0.310016 -28.651787
v 28.694510 -0.310016 -28.651787
v 1.275894 -0.310016 -28.014515
v 1.275894 -0.310016 -1.301216
v 27.989193 -0.310016 -1.301216
v 27.989193 -0.310016 -28.014515
v 28.694510 0.310016 -28.651787
v 1.275894 0.310016 -28.014515
v 27.989193 0.310016 -28.014515
v 27.989193 0.310016 -1.301216
v 1.275894 0.310016 -1.301216
v 1.275894 -0.693968 27.190151
v 27.989193 -0.693968 27.190151
v 1.275894 0.693968 27.190151
v 27.989193 0.693968 27.190151
v 1.275894 0.693968 0.476854
v 27.989193 0.693968 0.476854
v 1.275894 -0.693968 0.476854
v 27.989193 -0.693968 0.476854
v -27.141796 -0.693968 27.190151
v -0.428498 -0.693968 27.190151
v -27.141796 0.693968 27.190151
v -0.428498 0.693968 27.190151
v -27.141796 0.693968 0.476854
v -0.428498 0.693968 0.476854
v -27.141796 -0.693968 0.476854
v -0.428498 -0.693968 0.476854
v -27.141796 -0.693968 -1.301218
v -0.428498 -0.693968 -1.301218
v -27.141796 0.693968 -1.301218
v -0.428498 0.693968 -1.301218
v -27.141796 0.693968 -28.014519
v -0.428498 0.693968 -28.014519
v -27.141796 -0.693968 -28.014519
v -0.428498 -0.693968 -28.014519
vt 0.375000 0.000000
vt 0.625000 0.000000
vt 0.625000 0.250000
vt 0.375000 0.250000
vt 0.125000 0.000000
vt 0.125000 0.250000
vt 0.375000 0.750000
vt 0.625000 0.750000
vt 0.503578 0.752822
vt 0.503578 0.871103
vt 0.621876 0.871103
vt 0.625000 1.000000
vt 0.375000 1.000000
vt 0.621876 0.752822
vt 0.875000 0.000000
vt 0.875000 0.250000
vt 0.625000 0.500000
vt 0.375000 0.500000
vt 0.503578 0.497178
vt 0.621876 0.497178
vt 0.621876 0.378897
vt 0.503578 0.378897
vt 0.625000 0.069159
vt 0.375000 0.069159
vt 0.375000 0.180841
vt 0.625000 0.180841
vt 0.875000 0.069159
vt 0.875000 0.180841
vt 0.125000 0.069159
vt 0.125000 0.180841
vt 0.625000 0.569159
vt 0.375000 0.569159
vt 0.375000 0.680841
vt 0.625000 0.680841
vt 0.375000 0.000000
vt 0.625000 0.000000
vt 0.625000 0.250000
vt 0.375000 0.250000
vt 0.625000 0.500000
vt 0.375000 0.500000
vt 0.625000 0.750000
vt 0.375000 0.750000
vt 0.625000 1.000000
vt 0.375000 1.000000
vt 0.875000 0.000000
vt 0.875000 0.250000
vt 0.125000 0.000000
vt 0.125000 0.250000
vt 0.375000 0.000000
vt 0.625000 0.000000
vt 0.625000 0.250000
vt 0.375000 0.250000
vt 0.625000 0.500000
vt 0.375000 0.500000
vt 0.625000 0.750000
vt 0.375000 0.750000
vt 0.625000 1.000000
vt 0.375000 1.000000
vt 0.875000 0.000000
vt 0.875000 0.250000
vt 0.125000 0.000000
vt 0.125000 0.250000
vt 0.375000 0.000000
vt 0.625000 0.000000
vt 0.625000 0.250000
vt 0.375000 0.250000
vt 0.625000 0.500000
vt 0.375000 0.500000
vt 0.625000 0.750000
vt 0.375000 0.750000
vt 0.625000 1.000000
vt 0.375000 1.000000
vt 0.875000 0.000000
vt 0.875000 0.250000
vt 0.125000 0.000000
vt 0.125000 0.250000
vn 0.000000 0.000000 1.000000
vn 0.000000 0.000000 1.000000
vn 0.000000 0.000000 1.000000
vn 0.000000 0.000000 1.000000
vn -1.000000 0.000000 0.000000
vn -1.000000 0.000000 0.000000
vn -1.000000 0.000000 0.000000
vn -1.000000 0.000000 0.000000
vn 0.000000 -1.000000 0.000000
vn 0.000000 -1.000000 0.000000
vn 0.000000 -1.000000 0.000000
vn 0.000000 -1.000000 0.000000
vn 0.000000 -1.000000 0.000000
vn 0.000000 -1.000000 0.000000
vn 0.000000 -1.000000 0.000000
vn 0.000000 -1.000000 -0.000000
vn 1.000000 0.000000 0.000000
vn 1.000000 0.000000 0.000000
vn 1.000000 0.000000 0.000000
vn 1.000000 0.000000 0.000000
vn 0.000000 1.000000 0.000000
vn 0.000000 1.000000 -0.000000
vn 0.000000 1.000000 0.000000
vn 0.000000 1.000000 0.000000
vn 0.000000 1.000000 -0.000000
vn 0.000000 1.000000 0.000000
vn 0.000000 1.000000 0.000000
vn 0.000000 1.000000 0.000000
vn 0.000000 0.000000 -1.000000
vn 0.000000 0.000000 -1.000000
vn 0.000000 0.000000 -1.000000
vn 0.000000 0.000000 -1.000000
vn 0.000000 0.000000 -1.000000
vn 0.000000 0.000000 -1.000000
vn 0.000000 0.000000 -1.000000
vn 0.000000 0.000000 -1.000000
vn -1.000000 0.000000 0.000000
vn -1.000000 0.000000 0.000000
vn -1.000000 0.000000 0.000000
vn -1.000000 0.000000 0.000000
vn 1.000000 0.000000 0.000000
vn 1.000000 0.000000 0.000000
vn 1.000000 0.000000 0.000000
vn 1.000000 0.000000 0.000000
vn 0.000000 0.000000 1.000000
vn 0.000000 0.000000 1.000000
vn 0.000000 0.000000 1.000000
vn 0.000000 0.000000 1.000000
vn 0.000000 0.000000 1.000000
vn 0.000000 0.000000 1.000000
vn 0.000000 0.000000 1.000000
vn 0.000000 0.000000 1.000000
vn 0.000000 1.000000 0.000000
vn 0.000000 1.000000 0.000000
vn 0.000000 1.000000 0.000000
vn 0.000000 1.000000 0.000000
vn 0.000000 0.000000 -1.000000
vn 0.000000 0.000000 -1.000000
vn 0.000000 0.000000 -1.000000
vn 0.000000 0.000000 -1.000000
vn 0.000000 -1.000000 0.000000
vn 0.000000 -1.000000 0.000000
vn 0.000000 -1.000000 0.000000
vn 0.000000 -1.000000 0.000000
vn 1.000000 0.000000 0.000000
vn 1.000000 0.000000 0.000000
vn 1.000000 0.000000 0.000000
vn 1.000000 0.000000 0.000000
vn -1.000000 0.000000 0.000000
vn -1.000000 0.000000 0.000000
vn -1.000000 0.000000 0.000000
vn -1.000000 0.000000 0.000000
vn 0.000000 0.000000 1.000000
vn 0.000000 0.000000 1.000000
vn 0.000000 0.000000 1.000000
vn 0.000000 0.000000 1.000000
vn 0.000000 1.000000 0.000000
vn 0.000000 1.000000 0.000000
vn 0.000000 1.000000 0.000000
vn 0.000000 1.000000 0.000000
vn 0.000000 0.000000 -1.000000
vn 0.000000 0.000000 -1.000000
vn 0.000000 0.000000 -1.000000
vn 0.000000 0.000000 -1.000000
vn 0.000000 -1.000000 0.000000
vn 0.000000 -1.000000 0.000000
vn 0.000000 -1.000000 0.000000
vn 0.000000 -1.000000 0.000000
vn 1.000000 0.000000 0.000000
vn 1.000000 0.000000 0.000000
vn 1.000000 0.000000 0.000000
vn 1.000000 0.000000 0.000000
vn -1.000000 0.000000 0.000000
vn -1.000000 0.000000 0.000000
vn -1.000000 0.000000 0.000000
vn -1.000000 0.000000 0.000000
vn 0.000000 0.000000 1.000000
vn 0.000000 0.000000 1.000000
vn 0.000000 0.000000 1.000000
vn 0.000000 0.000000 1.000000
vn 0.000000 1.000000 0.000000
vn 0.000000 1.000000 0.000000
vn 0.000000 1.000000 0.000000
vn 0.000000 1.000000 0.000000
vn 0.000000 0.000000 -1.000000
vn 0.000000 0.000000 -1.000000
vn 0.000000 0.000000 -1.000000
vn 0.000000 0.000000 -1.000000
vn 0.000000 -1.000000 0.000000
vn 0.000000 -1.000000 0.000000
vn 0.000000 -1.000000 0.000000
vn 0.000000 -1.000000 0.000000
vn 1.000000 0.000000 0.000000
vn 1.000000 0.000000 0.000000
vn 1.000000 0.000000 0.000000
vn 1.000000 0.000000 0.000000
vn -1.000000 0.000000 0.000000
vn -1.000000 0.000000 0.000000
vn -1.000000 0.000000 0.000000
vn -1.000000 0.000000 0.000000
s off
g polySurface6
usemtl blinn2SG
f 1/1/1 2/2/2 3/3/3 4/4/4
f 5/5/5 1/1/6 4/4/7 6/6/8
s 1
f 5/7/9 7/8/10 8/9/11 9/10/12 10/11/13 2/12/14 1/13/15
f 10/11/13 11/14/16 8/9/11 7/8/10 2/12/14
s off
f 2/2/17 7/15/18 12/16/19 3/3/20
s 2
f 3/3/21 12/17/22 6/18/23 13/19/24 14/20/25 15/21/26
f 4/4/27 3/3/21 15/21/26 16/22/28 13/19/24 6/18/23
s off
f 6/18/29 12/17/30 7/8/31 5/7/32
f 10/23/33 9/24/34 16/25/35 15/26/36
f 11/27/37 10/23/38 15/26/39 14/28/40
f 9/24/41 8/29/42 13/30/43 16/25/44
f 14/31/45 13/32/46 8/33/47 11/34/48
usemtl blinn3SG
f 17/35/49 18/36/50 20/37/51 19/38/52
f 19/38/53 20/37/54 22/39/55 21/40/56
f 21/40/57 22/39/58 24/41/59 23/42/60
f 23/42/61 24/41/62 18/43/63 17/44/64
f 18/36/65 24/45/66 22/46/67 20/37/68
f 23/47/69 17/35/70 19/38/71 21/48/72
f 25/49/73 26/50/74 28/51/75 27/52/76
f 27/52/77 28/51/78 30/53/79 29/54/80
f 29/54/81 30/53/82 32/55/83 31/56/84
f 31/56/85 32/55/86 26/57/87 25/58/88
f 26/50/89 32/59/90 30/60/91 28/51/92
f 31/61/93 25/49/94 27/52/95 29/62/96
f 33/63/97 34/64/98 36/65/99 35/66/100
f 35/66/101 36/65/102 38/67/103 37/68/104
f 37/68/105 38/67/106 40/69/107 39/70/108
f 39/70/109 40/69/110 34/71/111 33/72/112
f 34/64/113 40/73/114 38/74/115 36/65/116
f 39/75/117 33/63/118 35/66/119 37/76/120
