# This file uses centimeters as units for non-parametric coordinates.

mtllib log.mtl
g default
v 1.205189 0.540641 -1.876222
v 0.779350 0.909632 -1.876222
v 0.221620 0.989821 -1.876222
v -0.290926 0.755750 -1.876222
v -0.595558 0.281733 -1.876222
v -0.595558 -0.281732 -1.876222
v -0.290926 -0.755750 -1.876222
v 0.221620 -0.989821 -1.876222
v 0.779350 -0.909632 -1.876222
v 1.205188 -0.540641 -1.876222
v 1.363935 -0.000000 -1.876222
v 0.696781 0.540641 1.876222
v 0.375200 0.909632 1.876222
v -0.141829 0.989821 1.876222
v -0.616971 0.755750 1.876222
v -0.899373 0.281733 1.876222
v -0.899373 -0.281732 1.876222
v -0.616971 -0.755750 1.876222
v -0.141829 -0.989821 1.876222
v 0.375200 -0.909632 1.876222
v 0.769963 -0.540641 1.876222
v 0.809899 0.000000 1.876222
v 0.363935 -0.000000 -1.876222
v 0.115667 0.000000 1.876222
v 0.841254 0.540641 -0.906996
v 0.415415 0.909632 -0.906996
v -0.142315 0.989821 -0.906996
v -0.654861 0.755750 -0.906996
v -0.595558 0.281733 -0.906996
v -0.595558 -0.281732 -0.906996
v -0.290926 -0.755750 -0.906996
v -0.142315 -0.989821 -0.906996
v 0.415415 -0.909632 -0.906996
v 0.841254 -0.540641 -0.906996
v 1.000000 -0.000000 -0.906996
v 0.588129 0.540641 1.233967
v 0.735291 0.000000 1.233967
v 0.588129 -0.540641 1.233967
v 0.193366 -0.909632 1.233967
v -0.323663 -0.989821 1.233967
v -0.798805 -0.755750 1.233967
v -1.081207 -0.281732 1.233967
v -1.081206 0.281733 1.233967
v -0.798805 0.755750 1.233967
v -0.323662 0.887599 1.233967
v 0.193366 0.807409 1.233967
v 0.645106 0.540641 0.582177
v 0.219267 0.807409 0.582177
v -0.338463 0.887599 0.582177
v -0.851009 0.755750 0.582177
v -1.155641 0.281733 0.582177
v -1.155641 -0.281732 0.582177
v -0.851009 -0.755750 0.582177
v -0.338463 -0.989821 0.582177
v 0.219267 -0.909632 0.582177
v 0.645105 -0.540641 0.582177
v 0.803852 0.000000 0.582177
v 0.906559 0.065477 0.530394
v 0.747812 0.606118 0.530394
v 0.747812 0.606118 1.182185
v 0.906559 0.065477 1.182185
v 0.925956 0.071173 0.530394
v 0.767210 0.611814 0.530394
v 0.767210 0.611814 1.182185
v 0.925956 0.071173 1.182185
vt 0.631446 0.071775
vt 0.564909 0.014120
vt 0.477763 0.001590
vt 0.397678 0.038164
vt 0.350079 0.112229
vt 0.350079 0.200271
vt 0.397678 0.274336
vt 0.477763 0.310910
vt 0.564909 0.298380
vt 0.631446 0.240725
vt 0.656250 0.156250
vt 0.375000 0.312500
vt 0.397727 0.312500
vt 0.420455 0.312500
vt 0.443182 0.312500
vt 0.465909 0.312500
vt 0.488636 0.312500
vt 0.511364 0.312500
vt 0.534091 0.312500
vt 0.556818 0.312500
vt 0.579545 0.312500
vt 0.602273 0.312500
vt 0.625000 0.312500
vt 0.375000 0.688440
vt 0.397727 0.688440
vt 0.420455 0.688440
vt 0.443182 0.688440
vt 0.465909 0.688440
vt 0.488636 0.688440
vt 0.511364 0.688440
vt 0.534091 0.688440
vt 0.556818 0.688440
vt 0.579545 0.688440
vt 0.602273 0.688440
vt 0.625000 0.688440
vt 0.631446 0.759275
vt 0.564909 0.701620
vt 0.477763 0.689090
vt 0.397678 0.725664
vt 0.350079 0.799729
vt 0.350079 0.887771
vt 0.397678 0.961836
vt 0.477763 0.998410
vt 0.564909 0.985880
vt 0.631446 0.928225
vt 0.656250 0.843750
vt 0.500000 0.150000
vt 0.500000 0.837500
vt 0.625000 0.409602
vt 0.375000 0.409602
vt 0.397727 0.409602
vt 0.420455 0.409602
vt 0.443182 0.409602
vt 0.465909 0.409602
vt 0.488636 0.409602
vt 0.511364 0.409602
vt 0.534091 0.409602
vt 0.556818 0.409602
vt 0.579545 0.409602
vt 0.602273 0.409602
vt 0.625000 0.624095
vt 0.375000 0.624095
vt 0.602273 0.624095
vt 0.579545 0.624095
vt 0.556818 0.624095
vt 0.534091 0.624095
vt 0.511364 0.624095
vt 0.488636 0.624095
vt 0.465909 0.624095
vt 0.443182 0.624095
vt 0.420455 0.624095
vt 0.397727 0.624095
vt 0.625000 0.558795
vt 0.375000 0.558795
vt 0.397727 0.558795
vt 0.420455 0.558795
vt 0.443182 0.558795
vt 0.465909 0.558795
vt 0.488636 0.558795
vt 0.511364 0.558795
vt 0.534091 0.558795
vt 0.556818 0.558795
vt 0.579545 0.558795
vt 0.602273 0.558795
vt 0.602273 0.558795
vt 0.625000 0.558795
vt 0.625000 0.624095
vt 0.602273 0.624095
vt 0.602273 0.558795
vt 0.625000 0.558795
vt 0.625000 0.624095
vt 0.602273 0.624095
vn 0.583093 0.807582 0.088395
vn 0.579717 0.810528 0.083499
vn 0.599586 0.796520 -0.077800
vn 0.604626 0.791491 -0.089269
vn 0.143394 0.987576 0.064273
vn 0.143769 0.987852 0.058976
vn 0.149400 0.985540 -0.079943
vn 0.149774 0.983007 -0.106137
vn -0.315634 0.948866 -0.005271
vn -0.312546 0.949893 -0.004270
vn -0.297516 0.954532 0.018778
vn -0.316523 0.948342 0.021442
vn -0.929915 0.340590 -0.138766
vn -0.927276 0.352653 -0.125682
vn -0.844336 0.514147 0.150828
vn -0.843007 0.511236 0.167260
vn -0.975225 0.000000 -0.221216
vn -0.975225 0.000000 -0.221216
vn -0.980949 0.000000 0.194264
vn -0.980949 0.000000 0.194264
vn -0.830513 -0.527171 -0.179831
vn -0.826255 -0.525638 -0.202502
vn -0.843008 -0.511236 0.167260
vn -0.844336 -0.514147 0.150828
vn -0.510595 -0.856952 -0.070184
vn -0.525755 -0.846053 -0.088177
vn -0.434516 -0.897189 0.079036
vn -0.432779 -0.899365 0.062006
vn 0.144025 -0.989488 0.013035
vn 0.143665 -0.989524 0.014219
vn 0.150627 -0.988324 -0.022948
vn 0.149786 -0.988586 -0.016174
vn 0.657822 -0.749777 0.071450
vn 0.656662 -0.750485 0.074611
vn 0.673931 -0.734384 -0.080605
vn 0.673677 -0.736546 -0.060496
vn 0.954024 -0.276855 0.114848
vn 0.953820 -0.277121 0.115896
vn 0.973724 -0.222293 -0.049476
vn 0.973581 -0.223800 -0.045322
vn 0.959493 0.281732 -0.000000
vn 0.959493 0.281732 -0.000000
vn 0.959493 0.281732 -0.000000
vn 0.959493 0.281732 -0.000000
vn 0.000000 0.000000 -1.000000
vn 0.000000 -0.000000 -1.000000
vn 0.000000 0.000000 -1.000000
vn 0.000000 0.000000 -1.000000
vn 0.000000 0.000000 -1.000000
vn 0.000000 -0.000000 -1.000000
vn 0.000000 -0.000000 -1.000000
vn 0.000000 -0.000000 -1.000000
vn 0.000000 -0.000000 -1.000000
vn 0.000000 -0.000000 -1.000000
vn 0.000000 -0.000000 -1.000000
vn 0.000000 -0.000000 -1.000000
vn 0.000000 0.000000 1.000000
vn 0.000000 0.000000 1.000000
vn 0.000000 -0.000000 1.000000
vn 0.000000 0.000000 1.000000
vn 0.000000 -0.000000 1.000000
vn 0.000000 -0.000000 1.000000
vn 0.000000 0.000000 1.000000
vn 0.000000 0.000000 1.000000
vn 0.000000 -0.000000 1.000000
vn 0.000000 0.000000 1.000000
vn 0.000000 -0.000000 1.000000
vn 0.000000 0.000000 1.000000
vn 0.635918 0.733888 0.238781
vn 0.635918 0.733888 0.238781
vn 0.609612 0.778591 0.148891
vn 0.617476 0.767173 0.173690
vn 0.142112 0.988411 0.053362
vn 0.142112 0.988411 0.053362
vn 0.141883 0.986819 0.077824
vn 0.141971 0.987428 0.069499
vn -0.410451 0.898764 -0.154120
vn -0.410451 0.898764 -0.154120
vn -0.357933 0.932306 -0.051855
vn -0.376603 0.922265 -0.087165
vn -0.952504 0.246487 -0.178828
vn -0.952504 0.246487 -0.178828
vn -0.945531 0.244682 -0.214714
vn -0.945190 0.244594 -0.216307
vn -1.000000 0.000000 -0.000000
vn -1.000000 0.000000 -0.000000
vn -0.975016 0.000000 -0.222132
vn -0.975017 0.000000 -0.222132
vn -0.841254 -0.540641 -0.000000
vn -0.841254 -0.540641 -0.000000
vn -0.828761 -0.532612 -0.171698
vn -0.824075 -0.529601 -0.201054
vn -0.574502 -0.811366 -0.107860
vn -0.574502 -0.811366 -0.107860
vn -0.573113 -0.809404 -0.128088
vn -0.572807 -0.808973 -0.132114
vn 0.142112 -0.988411 0.053362
vn 0.142112 -0.988411 0.053362
vn 0.142219 -0.989158 0.036610
vn 0.142260 -0.989443 0.027664
vn 0.635918 -0.733888 0.238781
vn 0.635918 -0.733888 0.238781
vn 0.646236 -0.745797 0.161760
vn 0.649132 -0.749138 0.131988
vn 0.902694 -0.265055 0.338953
vn 0.902694 -0.265055 0.338953
vn 0.935753 -0.274762 0.221069
vn 0.938960 -0.275704 0.205771
vn 0.902694 0.265055 0.338953
vn 0.902694 0.265055 0.338953
vn 0.938960 0.275703 0.205771
vn 0.935753 0.274762 0.221069
vn 0.963010 0.231810 -0.137392
vn 0.963010 0.231810 -0.137392
vn 0.963010 0.231810 -0.137392
vn 0.963010 0.231810 -0.137392
vn 0.966828 -0.167293 -0.193019
vn 0.966828 -0.167293 -0.193019
vn 0.670444 -0.717269 -0.189815
vn 0.670444 -0.717269 -0.189815
vn 0.153120 -0.987256 -0.043351
vn 0.153120 -0.987256 -0.043351
vn -0.438502 -0.890114 0.124148
vn -0.438502 -0.890114 0.124148
vn -0.834758 -0.497317 0.236335
vn -0.834758 -0.497317 0.236335
vn -0.962181 0.000000 0.272411
vn -0.962181 0.000000 0.272411
vn -0.834758 0.497317 0.236335
vn -0.834758 0.497318 0.236335
vn -0.359208 0.932853 0.027461
vn -0.359208 0.932853 0.027461
vn 0.150269 0.968870 -0.196751
vn 0.150269 0.968870 -0.196751
vn 0.649665 0.732011 -0.205173
vn 0.649665 0.732011 -0.205173
vn 0.951921 0.279509 0.125383
vn 0.951921 0.279509 0.125383
vn -0.388340 -0.114027 -0.914434
vn -0.388340 -0.114027 -0.914434
vn -0.329749 -0.096823 -0.939091
vn -0.345407 -0.101421 -0.932957
vn -0.452712 0.891437 -0.019787
vn -0.452712 0.891437 -0.019787
vn -0.434194 0.900648 -0.017588
vn -0.429651 0.902834 -0.017051
vn 0.270109 0.076417 0.959792
vn 0.270109 0.076417 0.959792
vn 0.245365 0.069417 0.966942
vn 0.242616 0.068639 0.967691
vn 0.438214 -0.898575 0.023048
vn 0.438214 -0.898575 0.023048
vn 0.417608 -0.908408 0.019942
vn 0.421600 -0.906549 0.020542
vn 0.000000 -0.000000 -1.000000
vn 0.000000 -0.000000 -1.000000
vn -0.281736 0.959492 -0.000000
vn -0.281736 0.959492 -0.000000
vn 0.000000 -0.000000 1.000000
vn 0.000000 -0.000000 1.000000
vn 0.281732 -0.959493 0.000000
vn 0.281732 -0.959493 0.000000
s 1
g pCylinder1
usemtl lambert2SG
f 47/74/1 48/75/2 46/72/3 36/62/4
s 2
f 48/75/5 49/76/6 45/71/7 46/72/8
s 3
f 49/76/9 50/77/10 44/70/11 45/71/12
s 4
f 50/77/13 51/78/14 43/69/15 44/70/16
s 5
f 51/78/17 52/79/18 42/68/19 43/69/20
s 6
f 52/79/21 53/80/22 41/67/23 42/68/24
s 7
f 53/80/25 54/81/26 40/66/27 41/67/28
s 8
f 54/81/29 55/82/30 39/65/31 40/66/32
s 9
f 55/82/33 56/83/34 38/64/35 39/65/36
s 10
f 56/83/37 57/84/38 37/63/39 38/64/40
s off
f 62/89/41 63/90/42 64/91/43 65/92/44
s 11
f 2/2/45 1/1/46 23/47/47
f 3/3/48 2/2/45 23/47/47
f 4/4/49 3/3/48 23/47/47
f 5/5/50 4/4/49 23/47/47
f 6/6/51 5/5/50 23/47/47
f 7/7/52 6/6/51 23/47/47
f 8/8/53 7/7/52 23/47/47
f 9/9/54 8/8/53 23/47/47
f 10/10/55 9/9/54 23/47/47
f 11/11/56 10/10/55 23/47/47
f 1/1/46 11/11/56 23/47/47
s 12
f 12/45/57 13/44/58 24/48/59
f 13/44/58 14/43/60 24/48/59
f 14/43/60 15/42/61 24/48/59
f 15/42/61 16/41/62 24/48/59
f 16/41/62 17/40/63 24/48/59
f 17/40/63 18/39/64 24/48/59
f 18/39/64 19/38/65 24/48/59
f 19/38/65 20/37/66 24/48/59
f 20/37/66 21/36/67 24/48/59
f 21/36/67 22/46/68 24/48/59
f 22/46/68 12/45/57 24/48/59
s 1
f 1/12/69 2/13/70 26/51/71 25/50/72
s 2
f 2/13/73 3/14/74 27/52/75 26/51/76
s 3
f 3/14/77 4/15/78 28/53/79 27/52/80
s 4
f 4/15/81 5/16/82 29/54/83 28/53/84
s 5
f 5/16/85 6/17/86 30/55/87 29/54/88
s 6
f 6/17/89 7/18/90 31/56/91 30/55/92
s 7
f 7/18/93 8/19/94 32/57/95 31/56/96
s 8
f 8/19/97 9/20/98 33/58/99 32/57/100
s 9
f 9/20/101 10/21/102 34/59/103 33/58/104
s 10
f 10/21/105 11/22/106 35/60/107 34/59/108
s 13
f 11/22/109 1/23/110 25/49/111 35/60/112
s off
f 37/63/113 36/61/114 12/35/115 22/34/116
s 10
f 38/64/40 37/63/39 22/34/117 21/33/118
s 9
f 39/65/36 38/64/35 21/33/119 20/32/120
s 8
f 40/66/32 39/65/31 20/32/121 19/31/122
s 7
f 41/67/28 40/66/27 19/31/123 18/30/124
s 6
f 42/68/24 41/67/23 18/30/125 17/29/126
s 5
f 43/69/20 42/68/19 17/29/127 16/28/128
s 4
f 44/70/16 43/69/15 16/28/129 15/27/130
s 3
f 45/71/12 44/70/11 15/27/131 14/26/132
s 2
f 46/72/8 45/71/7 14/26/133 13/25/134
s 1
f 36/62/4 46/72/3 13/25/135 12/24/136
f 25/50/72 26/51/71 48/75/2 47/74/1
s 2
f 26/51/76 27/52/75 49/76/6 48/75/5
s 3
f 27/52/80 28/53/79 50/77/10 49/76/9
s 4
f 28/53/84 29/54/83 51/78/14 50/77/13
s 5
f 29/54/88 30/55/87 52/79/18 51/78/17
s 6
f 30/55/92 31/56/91 53/80/22 52/79/21
s 7
f 31/56/96 32/57/95 54/81/26 53/80/25
s 8
f 32/57/100 33/58/99 55/82/30 54/81/29
s 9
f 33/58/104 34/59/103 56/83/34 55/82/33
s 10
f 34/59/108 35/60/107 57/84/38 56/83/37
s 13
f 35/60/112 25/49/111 47/73/137 57/84/138
s 14
f 57/84/139 47/73/140 59/86/141 58/85/142
s 15
f 47/73/143 36/61/144 60/87/145 59/86/146
s 16
f 36/61/147 37/63/148 61/88/149 60/87/150
s 17
f 37/63/151 57/84/152 58/85/153 61/88/154
s 14
f 58/85/142 59/86/141 63/90/155 62/89/156
s 15
f 59/86/146 60/87/145 64/91/157 63/90/158
s 16
f 60/87/150 61/88/149 65/92/159 64/91/160
s 17
f 61/88/154 58/85/153 62/89/161 65/92/162
