# This file uses centimeters as units for non-parametric coordinates.

mtllib potato bag.mtl
g default
v -0.500000 0.027047 0.347375
v 0.324621 0.027047 0.414657
v -0.422963 1.793700 0.075480
v 0.397328 1.793700 0.091341
v -0.422963 1.793700 -0.075480
v 0.310275 1.793700 -0.075480
v -0.500000 0.027047 -0.500000
v 0.389601 0.027047 -0.399155
v -0.500000 1.336660 0.500000
v 0.500000 1.336660 0.500000
v 0.382613 1.336660 -0.391558
v -0.500000 1.336660 -0.500000
v -0.612263 0.574131 0.560842
v 0.610531 0.574131 0.460162
v 0.518749 0.574131 -0.460162
v -0.591395 0.574131 -0.591106
v -0.210466 0.027047 0.500000
v -0.210466 0.027047 -0.500000
v -0.210466 0.574131 -0.642244
v -0.210466 1.336660 -0.500000
v -0.183704 1.793700 -0.075480
v -0.183704 1.793700 0.075480
v -0.210466 1.336660 0.500000
v -0.210466 0.574131 0.611936
v 0.180444 1.336660 -0.500000
v 0.180444 0.574131 -0.612345
v 0.180444 0.027047 -0.500000
v 0.180444 0.027047 0.500000
v 0.200375 0.574131 0.582784
v 0.180444 1.336660 0.500000
v 0.139328 1.793700 0.075480
v 0.139328 1.793700 -0.075480
v -0.379324 1.901326 -0.003192
v 0.374598 1.901326 -0.003192
v 0.500000 1.336660 -0.016258
v 0.651133 0.574131 -0.014963
v 0.628760 0.027047 -0.016258
v 0.180444 0.027047 -0.016258
v -0.210466 0.027047 -0.016258
v -0.500000 0.027047 -0.016258
v -0.710699 0.574131 -0.014963
v -0.500000 1.336660 -0.016258
v -0.409255 1.901326 0.033473
v -0.172603 1.901326 0.033473
v 0.146909 1.901326 0.033473
v 0.408099 1.901326 0.033473
v 0.500000 1.336660 0.229292
v 0.699630 0.574131 0.211023
v 0.500000 0.027047 0.229292
v 0.180444 0.027047 0.229292
v -0.210466 0.027047 0.229292
v -0.500000 0.027047 0.229292
v -0.744566 0.574131 0.311703
v -0.500000 1.336660 0.229292
v -0.500000 0.027047 -0.275088
v -0.210466 0.027047 -0.275088
v 0.180444 0.027047 -0.275088
v 0.500000 0.027047 -0.275088
v 0.598793 0.574131 -0.253170
v 0.500000 1.336660 -0.275088
v 0.408099 1.901326 -0.041839
v 0.146909 1.901326 -0.041839
v -0.172603 1.901326 -0.041839
v -0.414429 1.893804 -0.040390
v -0.500000 1.336660 -0.275088
v -0.752273 0.574131 -0.259136
v 0.164066 2.019708 -0.071137
v -0.192256 2.019708 -0.071137
v -0.173664 2.019708 -0.002970
v 0.150980 2.019708 -0.002970
v -0.579007 2.019708 -0.002434
v -0.579007 2.019708 -0.071137
v 0.533576 2.019708 -0.071137
v 0.533576 2.019708 -0.002434
v -0.579007 2.019708 0.061700
v -0.192256 2.019707 0.061700
v 0.164066 2.019707 0.061699
v 0.533576 2.019708 0.061699
v 0.454015 0.936721 -0.427540
v 0.610120 0.936721 -0.263592
v 0.649759 0.936721 -0.015579
v 0.604704 0.936721 0.219710
v 0.557973 0.936721 0.479105
v 0.190898 0.936721 0.625189
v -0.210466 0.936721 0.558709
v -0.529791 0.936721 0.605890
v -0.661422 0.936721 0.272516
v -0.606169 0.936721 -0.015579
v -0.572359 0.936721 -0.266721
v -0.547936 0.936721 -0.547784
v -0.210466 0.936721 -0.558924
v 0.180444 0.936721 -0.558924
vt 0.375000 0.000000
vt 0.625000 0.000000
vt 0.375000 0.250000
vt 0.625000 0.250000
vt 0.375000 0.500000
vt 0.625000 0.500000
vt 0.375000 0.750000
vt 0.625000 0.750000
vt 0.375000 1.000000
vt 0.625000 1.000000
vt 0.875000 0.000000
vt 0.875000 0.250000
vt 0.125000 0.000000
vt 0.125000 0.250000
vt 0.375000 0.185324
vt 0.625000 0.185324
vt 0.625000 0.564676
vt 0.875000 0.185324
vt 0.125000 0.185324
vt 0.375000 0.564676
vt 0.375000 0.077418
vt 0.625000 0.077418
vt 0.625000 0.672582
vt 0.875000 0.077418
vt 0.125000 0.077418
vt 0.375000 0.672582
vt 0.447384 0.000000
vt 0.447384 1.000000
vt 0.447384 0.750000
vt 0.447384 0.672582
vt 0.447384 0.564676
vt 0.447384 0.500000
vt 0.447384 0.250000
vt 0.447384 0.185324
vt 0.447384 0.077418
vt 0.545111 0.564676
vt 0.545111 0.672582
vt 0.545111 0.750000
vt 0.545111 0.000000
vt 0.545111 1.000000
vt 0.545111 0.077418
vt 0.545111 0.185324
vt 0.545111 0.250000
vt 0.545111 0.500000
vt 0.245935 0.250000
vt 0.375000 0.379065
vt 0.447384 0.379065
vt 0.545111 0.379065
vt 0.625000 0.379065
vt 0.754065 0.250000
vt 0.754065 0.185324
vt 0.754065 0.077418
vt 0.625000 0.870935
vt 0.754065 0.000000
vt 0.545111 0.870935
vt 0.447384 0.870936
vt 0.245935 0.000000
vt 0.375000 0.870935
vt 0.245935 0.077418
vt 0.245935 0.185324
vt 0.307323 0.250000
vt 0.375000 0.317677
vt 0.447384 0.317677
vt 0.545111 0.317677
vt 0.625000 0.317677
vt 0.692677 0.250000
vt 0.692677 0.185324
vt 0.692677 0.077418
vt 0.625000 0.932323
vt 0.692677 0.000000
vt 0.545111 0.932323
vt 0.447384 0.932323
vt 0.307323 0.000000
vt 0.375000 0.932323
vt 0.307323 0.077418
vt 0.307323 0.185324
vt 0.181228 0.000000
vt 0.375000 0.806228
vt 0.447384 0.806228
vt 0.545111 0.806228
vt 0.625000 0.806228
vt 0.818772 0.000000
vt 0.818772 0.077418
vt 0.818772 0.185324
vt 0.625000 0.443772
vt 0.818772 0.250000
vt 0.545111 0.443772
vt 0.447384 0.443772
vt 0.181228 0.250000
vt 0.375000 0.443772
vt 0.181228 0.185324
vt 0.181228 0.077418
vt 0.545111 0.443772
vt 0.447384 0.443772
vt 0.375000 0.443772
vt 0.375000 0.379065
vt 0.625000 0.443772
vt 0.625000 0.379065
vt 0.375000 0.317677
vt 0.447384 0.317677
vt 0.545111 0.317677
vt 0.625000 0.317677
vt 0.625000 0.621271
vt 0.875000 0.128728
vt 0.818772 0.128728
vt 0.754065 0.128728
vt 0.692677 0.128728
vt 0.625000 0.128728
vt 0.545111 0.128728
vt 0.447384 0.128728
vt 0.375000 0.128728
vt 0.307323 0.128728
vt 0.245935 0.128728
vt 0.181228 0.128728
vt 0.125000 0.128728
vt 0.375000 0.621271
vt 0.447384 0.621271
vt 0.545111 0.621271
vn 0.000000 0.680559 0.732693
vn -0.005942 0.498379 0.866939
vn 0.017001 0.484579 0.874582
vn -0.008483 0.676932 0.735996
vn 0.000000 1.000000 0.000000
vn 0.000000 1.000000 -0.000001
vn 0.000000 1.000000 0.000001
vn -0.000000 1.000000 0.000001
vn -0.003478 0.472416 -0.881369
vn 0.000000 0.680559 -0.732693
vn 0.069878 0.668167 -0.740723
vn 0.129455 0.447870 -0.884677
vn 0.000000 -1.000000 0.000000
vn 0.000000 -1.000000 0.000000
vn 0.000000 -1.000000 0.000000
vn 0.000000 -1.000000 0.000000
vn 0.985775 0.168064 -0.001191
vn 0.969570 0.244789 0.003591
vn 0.842099 0.328832 -0.427479
vn 0.939958 0.297551 -0.167162
vn -0.981695 0.156278 0.108868
vn -0.983712 0.178538 -0.020837
vn -0.974163 0.221629 -0.043436
vn -0.986722 0.162413 -0.001491
vn 0.096367 0.085393 0.991676
vn -0.020097 0.116421 0.992997
vn -0.079019 -0.139788 0.987023
vn 0.161634 -0.116412 0.979961
vn 0.925715 0.154759 -0.345110
vn 0.980574 0.191097 -0.044246
vn 0.992526 -0.068753 -0.100824
vn 0.920523 -0.070528 -0.384270
vn -0.017162 -0.059340 -0.998090
vn -0.014510 0.160530 -0.986924
vn 0.200919 0.159255 -0.966576
vn 0.207034 -0.058655 -0.976574
vn -0.955977 0.283664 -0.075116
vn -0.959872 0.259087 -0.107334
vn -0.989501 -0.079129 -0.120937
vn -0.992395 -0.120569 -0.024799
vn -0.117250 -0.240651 0.963504
vn 0.169543 -0.189986 0.967037
vn 0.983665 -0.147843 -0.102693
vn 0.900167 -0.142593 -0.411542
vn -0.014261 -0.221029 -0.975163
vn 0.208455 -0.214062 -0.954319
vn -0.930545 -0.349998 -0.107648
vn -0.922755 -0.385330 0.006706
vn 0.000000 -1.000000 0.000000
vn 0.000000 -1.000000 0.000000
vn -0.080299 -0.050948 -0.995468
vn -0.074291 -0.213932 -0.974020
vn -0.054619 0.157016 -0.986085
vn 0.000000 0.680559 -0.732693
vn -0.008723 0.442766 -0.896595
vn 0.000000 1.000000 -0.000001
vn 0.000000 1.000000 -0.000002
vn 0.036320 0.475948 0.878723
vn 0.000000 0.680559 0.732693
vn -0.175097 -0.187880 0.966458
vn 0.030450 0.094414 0.995067
vn -0.269657 -0.299814 0.915094
vn 0.428711 0.144091 -0.891877
vn 0.419488 -0.046808 -0.906553
vn 0.411915 -0.189820 -0.891232
vn 0.000000 -1.000000 0.000000
vn 0.000000 -1.000000 0.000000
vn 0.343901 -0.203604 0.916667
vn 0.335585 -0.123611 0.933865
vn 0.275310 0.034179 0.960748
vn 0.095838 0.432792 0.896385
vn -0.020335 0.671756 0.740493
vn 0.000000 1.000000 0.000000
vn -0.000000 1.000000 0.000000
vn 0.216590 0.630666 -0.745218
vn 0.339462 0.414130 -0.844548
vn 0.000000 1.000000 0.000000
vn 0.000000 1.000000 0.000002
vn -0.000000 1.000000 0.000002
vn -0.000000 1.000000 0.000000
vn 0.979658 0.179334 -0.090053
vn 0.970491 0.234195 0.057454
vn 0.971501 0.209078 0.111679
vn 0.958686 -0.112633 0.261219
vn 0.881685 -0.301922 0.362593
vn 0.000000 -1.000000 0.000000
vn 0.000000 -1.000000 0.000000
vn 0.000000 -1.000000 0.000000
vn 0.000000 -1.000000 0.000000
vn -0.920361 -0.382643 0.080741
vn -0.985382 -0.108203 0.131586
vn -0.960821 0.258709 0.099464
vn -0.969038 0.246125 0.019716
vn -0.980735 0.166848 -0.101595
vn 0.000000 0.363597 0.931557
vn 0.000000 0.363597 0.931556
vn 0.000000 0.363597 0.931556
vn 0.000000 0.363597 0.931557
vn -0.013141 0.391874 0.919925
vn -0.012097 0.389641 0.920887
vn -0.027673 0.422674 0.905859
vn -0.027673 0.422674 0.905859
vn 0.973195 0.210134 0.093466
vn 0.961506 0.250253 0.113487
vn 0.897825 -0.155340 0.412044
vn 0.968217 0.190749 0.161774
vn 0.795281 -0.364958 0.484080
vn 0.000000 -1.000000 0.000000
vn 0.000000 -1.000000 0.000000
vn 0.000000 -1.000000 0.000000
vn 0.000000 -1.000000 0.000000
vn -0.873974 -0.370166 0.314877
vn -0.923004 -0.042272 0.382461
vn -0.923595 0.234456 0.303320
vn -0.953720 0.247403 0.170912
vn -0.985082 0.171357 0.015793
vn 0.000000 -1.000000 0.000000
vn 0.000000 -1.000000 0.000000
vn 0.000000 -1.000000 0.000000
vn 0.000000 -1.000000 0.000000
vn 0.850241 -0.194598 -0.489103
vn 0.854331 -0.078338 -0.513791
vn 0.775259 0.132179 -0.617659
vn 0.555861 0.324581 -0.765288
vn 0.321891 0.487967 -0.811341
vn 0.000000 0.298344 -0.954458
vn 0.000000 0.298344 -0.954458
vn 0.000000 0.298344 -0.954458
vn 0.000000 0.298344 -0.954458
vn -0.003511 0.305773 -0.952098
vn -0.003002 0.304697 -0.952445
vn -0.007780 0.314778 -0.949134
vn -0.007780 0.314778 -0.949134
vn -0.986547 0.156942 -0.045768
vn -0.982539 0.182159 -0.037884
vn -0.957929 -0.052368 -0.282187
vn -0.954608 0.236378 -0.181242
vn -0.914790 -0.305479 -0.264275
vn 0.000000 -0.240240 -0.970714
vn 0.000274 -0.239355 -0.970932
vn 0.000333 -0.239164 -0.970979
vn 0.000000 -0.240240 -0.970714
vn -0.140570 -0.436063 -0.888869
vn -0.300857 -0.639075 -0.707861
vn -0.559605 -0.827128 0.051969
vn -0.559470 -0.827521 0.046935
vn 0.150230 -0.409182 -0.900001
vn 0.273481 -0.536916 -0.798078
vn 0.652181 -0.758059 0.002628
vn 0.652190 -0.758055 -0.000511
vn -0.134132 -0.427122 0.894190
vn -0.000000 -0.231936 0.972731
vn -0.000000 -0.231935 0.972731
vn -0.296706 -0.641799 0.707149
vn 0.000000 -0.231936 0.972731
vn 0.000000 -0.231936 0.972731
vn 0.142871 -0.393678 0.908078
vn 0.263111 -0.520014 0.812624
s 1
g pCube1
usemtl initialShadingGroup
f 22/33/1 23/34/2 30/42/3 31/43/4
s 2
f 67/93/5 68/94/6 69/47/7 70/48/8
s 3
f 20/31/9 21/32/10 32/44/11 25/36/12
s 4
f 38/55/13 39/56/14 56/79/15 57/80/16
s 5
f 34/50/17 35/51/18 60/84/19 61/86/20
s 6
f 64/89/21 65/91/22 42/60/23 33/45/24
s 1
f 84/109/25 85/110/26 24/35/27 29/41/28
s 5
f 80/105/29 81/106/30 36/52/31 59/83/32
s 3
f 19/30/33 91/117/34 92/118/35 26/37/36
s 6
f 88/113/37 89/114/38 66/92/39 41/59/40
s 1
f 24/35/27 17/27/41 28/39/42 29/41/28
s 5
f 36/52/31 37/54/43 58/82/44 59/83/32
s 3
f 18/29/45 19/30/33 26/37/36 27/38/46
s 6
f 66/92/39 55/77/47 40/57/48 41/59/40
s 4
f 55/78/49 56/79/15 39/56/14 40/58/50
s 3
f 16/26/51 19/30/33 18/29/45 7/7/52
f 90/116/53 91/117/34 19/30/33 16/26/51
f 5/5/54 21/32/10 20/31/9 12/20/55
s 2
f 71/96/56 69/47/7 68/94/6 72/95/57
s 1
f 9/15/58 23/34/2 22/33/1 3/3/59
f 13/21/60 24/35/27 85/110/26 86/111/61
f 1/1/62 17/27/41 24/35/27 13/21/60
s 3
f 26/37/36 92/118/35 79/103/63 15/23/64
f 27/38/46 26/37/36 15/23/64 8/8/65
s 4
f 37/53/66 38/55/13 57/80/16 58/81/67
s 1
f 29/41/28 28/39/42 2/2/68 14/22/69
f 83/108/70 84/109/25 29/41/28 14/22/69
f 31/43/4 30/42/3 10/16/71 4/4/72
s 2
f 73/97/73 67/93/5 70/48/8 74/98/74
s 3
f 25/36/12 32/44/11 6/6/75 11/17/76
s 2
f 75/99/77 76/100/78 69/47/7 71/96/56
f 70/48/8 69/47/7 76/100/78 77/101/79
f 74/98/74 70/48/8 77/101/79 78/102/80
s 5
f 46/66/81 47/67/82 35/51/18 34/50/17
f 81/106/30 82/107/83 48/68/84 36/52/31
f 48/68/84 49/70/85 37/54/43 36/52/31
s 4
f 49/69/86 50/71/87 38/55/13 37/53/66
f 50/71/87 51/72/88 39/56/14 38/55/13
f 40/58/50 39/56/14 51/72/88 52/74/89
s 6
f 41/59/40 40/57/48 52/73/90 53/75/91
f 87/112/92 88/113/37 41/59/40 53/75/91
f 33/45/24 42/60/23 54/76/93 43/61/94
s 8
f 3/3/95 22/33/96 44/63/97 43/62/98
f 45/64/99 44/63/97 22/33/96 31/43/100
f 46/65/101 45/64/99 31/43/100 4/4/102
s 5
f 10/16/103 47/67/82 46/66/81 4/4/104
f 14/22/105 48/68/84 82/107/83 83/108/106
f 2/2/107 49/70/85 48/68/84 14/22/105
s 4
f 28/40/108 50/71/87 49/69/86 2/10/109
f 17/28/110 51/72/88 50/71/87 28/40/108
f 52/74/89 51/72/88 17/28/110 1/9/111
s 6
f 53/75/91 52/73/90 1/1/112 13/21/113
f 86/111/114 87/112/92 53/75/91 13/21/113
f 43/61/94 54/76/93 9/15/115 3/3/116
s 4
f 7/7/117 18/29/118 56/79/15 55/78/49
f 57/80/16 56/79/15 18/29/118 27/38/119
f 58/81/67 57/80/16 27/38/119 8/8/120
s 5
f 59/83/32 58/82/44 8/11/121 15/24/122
f 79/104/123 80/105/29 59/83/32 15/24/122
f 61/86/20 60/84/19 11/18/124 6/12/125
s 9
f 32/44/126 62/87/127 61/85/128 6/6/129
f 21/32/130 63/88/131 62/87/127 32/44/126
f 64/90/132 63/88/131 21/32/130 5/5/133
s 6
f 12/19/134 65/91/22 64/89/21 5/14/135
f 16/25/136 66/92/39 89/114/38 90/115/137
f 7/13/138 55/77/47 66/92/39 16/25/136
s 10
f 62/87/139 63/88/140 68/94/141 67/93/142
f 63/88/140 64/90/143 72/95/144 68/94/141
f 64/90/143 33/46/145 71/96/146 72/95/144
f 61/85/147 62/87/139 67/93/142 73/97/148
f 34/49/149 61/85/147 73/97/148 74/98/150
f 43/62/151 44/63/152 76/100/153 75/99/154
f 33/46/145 43/62/151 75/99/154 71/96/146
f 44/63/152 45/64/155 77/101/156 76/100/153
f 45/64/155 46/65/157 78/102/158 77/101/156
f 46/65/157 34/49/149 74/98/150 78/102/158
s 5
f 60/84/19 80/105/29 79/104/123 11/18/124
f 35/51/18 81/106/30 80/105/29 60/84/19
f 47/67/82 82/107/83 81/106/30 35/51/18
f 83/108/106 82/107/83 47/67/82 10/16/103
s 1
f 30/42/3 84/109/25 83/108/70 10/16/71
f 23/34/2 85/110/26 84/109/25 30/42/3
f 86/111/61 85/110/26 23/34/2 9/15/58
s 6
f 54/76/93 87/112/92 86/111/114 9/15/115
f 42/60/23 88/113/37 87/112/92 54/76/93
f 65/91/22 89/114/38 88/113/37 42/60/23
f 90/115/137 89/114/38 65/91/22 12/19/134
s 3
f 12/20/55 20/31/9 91/117/34 90/116/53
f 92/118/35 91/117/34 20/31/9 25/36/12
f 79/103/63 92/118/35 25/36/12 11/17/76
