# This file uses centimeters as units for non-parametric coordinates.

mtllib t-pipe.mtl
g default
v 0.163824 -0.007484 -0.108226
v 0.084597 -0.007484 -0.187453
v -0.023629 -0.007484 -0.216452
v -0.131855 -0.007484 -0.187453
v -0.211082 -0.007484 -0.108226
v -0.240082 -0.007484 0.000000
v -0.211082 -0.007484 0.108226
v -0.131855 -0.007484 0.187453
v -0.023629 -0.007484 0.216452
v 0.084597 -0.007484 0.187453
v 0.163824 -0.007484 0.108226
v 0.192823 -0.007484 0.000000
v 0.163824 3.747113 -0.108226
v 0.084597 3.747113 -0.187453
v -0.023629 3.747113 -0.216452
v -0.131855 3.747113 -0.187453
v -0.211082 3.747113 -0.108226
v -0.240082 3.747113 0.000000
v -0.211082 3.747113 0.108226
v -0.131855 3.747113 0.187453
v -0.023629 3.747113 0.216452
v 0.084597 3.747113 0.187453
v 0.163824 3.747113 0.108226
v 0.192823 3.747113 0.000000
v -0.023629 -0.007484 0.000000
v -0.023629 3.747113 0.000000
v 0.163824 0.321267 -0.108226
v 0.084597 0.321267 -0.187453
v -0.023629 0.321267 -0.216452
v -0.131855 0.321267 -0.187453
v -0.211082 0.321267 -0.108226
v -0.240082 0.321267 0.000000
v -0.211082 0.321267 0.108226
v -0.131855 0.321267 0.187453
v -0.023629 0.321267 0.216452
v 0.084597 0.321267 0.187453
v 0.163824 0.321267 0.108226
v 0.192823 0.321267 0.000000
vt 0.635316 0.078125
vt 0.578125 0.020934
vt 0.500000 0.000000
vt 0.421875 0.020934
vt 0.364684 0.078125
vt 0.343750 0.156250
vt 0.364684 0.234375
vt 0.421875 0.291566
vt 0.500000 0.312500
vt 0.578125 0.291566
vt 0.635316 0.234375
vt 0.656250 0.156250
vt 0.375000 0.312500
vt 0.395833 0.312500
vt 0.416667 0.312500
vt 0.437500 0.312500
vt 0.458333 0.312500
vt 0.479167 0.312500
vt 0.500000 0.312500
vt 0.520833 0.312500
vt 0.541667 0.312500
vt 0.562500 0.312500
vt 0.583333 0.312500
vt 0.604167 0.312500
vt 0.625000 0.312500
vt 0.375000 0.688440
vt 0.395833 0.688440
vt 0.416667 0.688440
vt 0.437500 0.688440
vt 0.458333 0.688440
vt 0.479167 0.688440
vt 0.500000 0.688440
vt 0.520833 0.688440
vt 0.541667 0.688440
vt 0.562500 0.688440
vt 0.583333 0.688440
vt 0.604167 0.688440
vt 0.625000 0.688440
vt 0.635316 0.765625
vt 0.578125 0.708434
vt 0.500000 0.687500
vt 0.421875 0.708434
vt 0.364684 0.765625
vt 0.343750 0.843750
vt 0.364684 0.921875
vt 0.421875 0.979066
vt 0.500000 1.000000
vt 0.578125 0.979066
vt 0.635316 0.921875
vt 0.656250 0.843750
vt 0.500000 0.150000
vt 0.500000 0.837500
vt 0.625000 0.345417
vt 0.375000 0.345417
vt 0.395833 0.345417
vt 0.416667 0.345417
vt 0.437500 0.345417
vt 0.458333 0.345417
vt 0.479167 0.345417
vt 0.500000 0.345417
vt 0.520833 0.345417
vt 0.541667 0.345417
vt 0.562500 0.345417
vt 0.583333 0.345417
vt 0.604167 0.345417
vn 0.707107 0.000000 -0.707107
vn 0.707107 0.000000 -0.707107
vn 0.707107 0.000000 -0.707107
vn 0.707107 0.000000 -0.707107
vn 0.258819 0.000000 -0.965926
vn 0.258819 0.000000 -0.965926
vn 0.258819 0.000000 -0.965926
vn 0.258819 0.000000 -0.965926
vn -0.258819 0.000000 -0.965926
vn -0.258819 0.000000 -0.965926
vn -0.258819 0.000000 -0.965926
vn -0.258819 0.000000 -0.965926
vn -0.707107 0.000000 -0.707107
vn -0.707107 0.000000 -0.707107
vn -0.707107 0.000000 -0.707107
vn -0.707107 0.000000 -0.707107
vn -0.965926 0.000000 -0.258819
vn -0.965926 0.000000 -0.258819
vn -0.965926 0.000000 -0.258819
vn -0.965926 0.000000 -0.258819
vn -0.965926 0.000000 0.258819
vn -0.965926 0.000000 0.258819
vn -0.965926 0.000000 0.258819
vn -0.965926 0.000000 0.258819
vn -0.707107 0.000000 0.707107
vn -0.707107 0.000000 0.707107
vn -0.707107 0.000000 0.707107
vn -0.707107 0.000000 0.707107
vn -0.258819 0.000000 0.965926
vn -0.258819 0.000000 0.965926
vn -0.258819 0.000000 0.965926
vn -0.258819 0.000000 0.965926
vn 0.258819 0.000000 0.965926
vn 0.258819 0.000000 0.965926
vn 0.258819 0.000000 0.965926
vn 0.258819 0.000000 0.965926
vn 0.707107 0.000000 0.707107
vn 0.707107 0.000000 0.707107
vn 0.707107 0.000000 0.707107
vn 0.707107 0.000000 0.707107
vn 0.965926 0.000000 0.258819
vn 0.965926 0.000000 0.258819
vn 0.965926 0.000000 0.258819
vn 0.965926 0.000000 0.258819
vn 0.965926 0.000000 -0.258819
vn 0.965926 0.000000 -0.258819
vn 0.965926 0.000000 -0.258819
vn 0.965926 0.000000 -0.258819
vn 0.000000 -1.000000 0.000000
vn 0.000000 -1.000000 0.000000
vn 0.000000 -1.000000 0.000000
vn 0.000000 -1.000000 0.000000
vn 0.000000 -1.000000 0.000000
vn 0.000000 -1.000000 0.000000
vn 0.000000 -1.000000 0.000000
vn 0.000000 -1.000000 0.000000
vn 0.000000 -1.000000 0.000000
vn 0.000000 -1.000000 0.000000
vn 0.000000 -1.000000 0.000000
vn 0.000000 -1.000000 0.000000
vn 0.000000 -1.000000 0.000000
vn 0.000000 1.000000 -0.000003
vn 0.000000 1.000000 0.000000
vn 0.000000 1.000000 -0.000000
vn 0.000000 1.000000 0.000000
vn 0.000000 1.000000 0.000001
vn 0.000000 1.000000 -0.000001
vn 0.000000 1.000000 0.000000
vn 0.000000 1.000000 0.000003
vn 0.000000 1.000000 0.000000
vn 0.000000 1.000000 0.000000
vn 0.000000 1.000000 -0.000001
vn 0.000000 1.000000 0.000001
vn 0.000000 1.000000 0.000000
vn 0.707107 0.000000 -0.707107
vn 0.707107 0.000000 -0.707107
vn 0.258819 0.000000 -0.965926
vn 0.258819 0.000000 -0.965926
vn -0.258819 0.000000 -0.965926
vn -0.258819 0.000000 -0.965926
vn -0.707107 0.000000 -0.707107
vn -0.707107 0.000000 -0.707107
vn -0.965926 0.000000 -0.258819
vn -0.965926 0.000000 -0.258819
vn -0.965926 0.000000 0.258819
vn -0.965926 0.000000 0.258819
vn -0.707107 0.000000 0.707107
vn -0.707107 0.000000 0.707107
vn -0.258819 0.000000 0.965926
vn -0.258819 0.000000 0.965926
vn 0.258819 0.000000 0.965926
vn 0.258819 0.000000 0.965926
vn 0.707107 0.000000 0.707107
vn 0.707107 0.000000 0.707107
vn 0.965926 0.000000 0.258819
vn 0.965926 0.000000 0.258819
vn 0.965926 0.000000 -0.258819
vn 0.965926 0.000000 -0.258819
s 1
g pCylinder1
usemtl blinn2SG
f 27/54/1 28/55/2 14/27/3 13/26/4
s 2
f 28/55/5 29/56/6 15/28/7 14/27/8
s 3
f 29/56/9 30/57/10 16/29/11 15/28/12
s 4
f 30/57/13 31/58/14 17/30/15 16/29/16
s 5
f 31/58/17 32/59/18 18/31/19 17/30/20
s 6
f 32/59/21 33/60/22 19/32/23 18/31/24
s 7
f 33/60/25 34/61/26 20/33/27 19/32/28
s 8
f 34/61/29 35/62/30 21/34/31 20/33/32
s 9
f 35/62/33 36/63/34 22/35/35 21/34/36
s 10
f 36/63/37 37/64/38 23/36/39 22/35/40
s 11
f 37/64/41 38/65/42 24/37/43 23/36/44
s 12
f 38/65/45 27/53/46 13/38/47 24/37/48
s 13
f 2/2/49 1/1/50 25/51/51
f 3/3/52 2/2/49 25/51/51
f 4/4/53 3/3/52 25/51/51
f 5/5/54 4/4/53 25/51/51
f 6/6/55 5/5/54 25/51/51
f 7/7/56 6/6/55 25/51/51
f 8/8/57 7/7/56 25/51/51
f 9/9/58 8/8/57 25/51/51
f 10/10/59 9/9/58 25/51/51
f 11/11/60 10/10/59 25/51/51
f 12/12/61 11/11/60 25/51/51
f 1/1/50 12/12/61 25/51/51
s 14
f 13/49/62 14/48/63 26/52/64
f 14/48/63 15/47/65 26/52/64
f 15/47/65 16/46/66 26/52/64
f 16/46/66 17/45/67 26/52/64
f 17/45/67 18/44/68 26/52/64
f 18/44/68 19/43/69 26/52/64
f 19/43/69 20/42/70 26/52/64
f 20/42/70 21/41/71 26/52/64
f 21/41/71 22/40/72 26/52/64
f 22/40/72 23/39/73 26/52/64
f 23/39/73 24/50/74 26/52/64
f 24/50/74 13/49/62 26/52/64
s 1
f 1/13/75 2/14/76 28/55/2 27/54/1
s 2
f 2/14/77 3/15/78 29/56/6 28/55/5
s 3
f 3/15/79 4/16/80 30/57/10 29/56/9
s 4
f 4/16/81 5/17/82 31/58/14 30/57/13
s 5
f 5/17/83 6/18/84 32/59/18 31/58/17
s 6
f 6/18/85 7/19/86 33/60/22 32/59/21
s 7
f 7/19/87 8/20/88 34/61/26 33/60/25
s 8
f 8/20/89 9/21/90 35/62/30 34/61/29
s 9
f 9/21/91 10/22/92 36/63/34 35/62/33
s 10
f 10/22/93 11/23/94 37/64/38 36/63/37
s 11
f 11/23/95 12/24/96 38/65/42 37/64/41
s 12
f 12/24/97 1/25/98 27/53/46 38/65/45
g default
v 1.887630 0.187453 -0.108226
v 1.887630 0.108226 -0.187453
v 1.887630 -0.000000 -0.216452
v 1.887630 -0.108226 -0.187453
v 1.887630 -0.187453 -0.108226
v 1.887630 -0.216452 0.000000
v 1.887630 -0.187453 0.108226
v 1.887630 -0.108226 0.187453
v 1.887630 -0.000000 0.216452
v 1.887630 0.108226 0.187453
v 1.887630 0.187453 0.108226
v 1.887630 0.216452 0.000000
v -1.866967 0.187453 -0.108226
v -1.866967 0.108226 -0.187453
v -1.866967 0.000000 -0.216452
v -1.866967 -0.108226 -0.187453
v -1.866967 -0.187453 -0.108226
v -1.866967 -0.216452 0.000000
v -1.866967 -0.187453 0.108226
v -1.866967 -0.108226 0.187453
v -1.866967 0.000000 0.216452
v -1.866967 0.108226 0.187453
v -1.866967 0.187453 0.108226
v -1.866967 0.216453 0.000000
v 1.887630 -0.000000 0.000000
v -1.866967 0.000000 0.000000
v 1.558880 0.187453 -0.108226
v 1.558880 0.108226 -0.187453
v 1.558880 0.000000 -0.216452
v 1.558880 -0.108226 -0.187453
v 1.558880 -0.187453 -0.108226
v 1.558880 -0.216452 0.000000
v 1.558880 -0.187453 0.108226
v 1.558880 -0.108226 0.187453
v 1.558880 0.000000 0.216452
v 1.558880 0.108226 0.187453
v 1.558880 0.187453 0.108226
v 1.558880 0.216452 0.000000
vt 0.635316 0.078125
vt 0.578125 0.020934
vt 0.500000 0.000000
vt 0.421875 0.020934
vt 0.364684 0.078125
vt 0.343750 0.156250
vt 0.364684 0.234375
vt 0.421875 0.291566
vt 0.500000 0.312500
vt 0.578125 0.291566
vt 0.635316 0.234375
vt 0.656250 0.156250
vt 0.375000 0.312500
vt 0.395833 0.312500
vt 0.416667 0.312500
vt 0.437500 0.312500
vt 0.458333 0.312500
vt 0.479167 0.312500
vt 0.500000 0.312500
vt 0.520833 0.312500
vt 0.541667 0.312500
vt 0.562500 0.312500
vt 0.583333 0.312500
vt 0.604167 0.312500
vt 0.625000 0.312500
vt 0.375000 0.688440
vt 0.395833 0.688440
vt 0.416667 0.688440
vt 0.437500 0.688440
vt 0.458333 0.688440
vt 0.479167 0.688440
vt 0.500000 0.688440
vt 0.520833 0.688440
vt 0.541667 0.688440
vt 0.562500 0.688440
vt 0.583333 0.688440
vt 0.604167 0.688440
vt 0.625000 0.688440
vt 0.635316 0.765625
vt 0.578125 0.708434
vt 0.500000 0.687500
vt 0.421875 0.708434
vt 0.364684 0.765625
vt 0.343750 0.843750
vt 0.364684 0.921875
vt 0.421875 0.979066
vt 0.500000 1.000000
vt 0.578125 0.979066
vt 0.635316 0.921875
vt 0.656250 0.843750
vt 0.500000 0.150000
vt 0.500000 0.837500
vt 0.625000 0.345417
vt 0.375000 0.345417
vt 0.395833 0.345417
vt 0.416667 0.345417
vt 0.437500 0.345417
vt 0.458333 0.345417
vt 0.479167 0.345417
vt 0.500000 0.345417
vt 0.520833 0.345417
vt 0.541667 0.345417
vt 0.562500 0.345417
vt 0.583333 0.345417
vt 0.604167 0.345417
vn 0.000000 0.707107 -0.707107
vn 0.000000 0.707107 -0.707107
vn 0.000000 0.707107 -0.707107
vn 0.000000 0.707107 -0.707107
vn 0.000000 0.258819 -0.965926
vn 0.000000 0.258819 -0.965926
vn 0.000000 0.258819 -0.965926
vn 0.000000 0.258819 -0.965926
vn -0.000000 -0.258819 -0.965926
vn -0.000000 -0.258819 -0.965926
vn -0.000000 -0.258819 -0.965926
vn -0.000000 -0.258819 -0.965926
vn -0.000000 -0.707107 -0.707107
vn -0.000000 -0.707107 -0.707107
vn -0.000000 -0.707107 -0.707107
vn -0.000000 -0.707107 -0.707107
vn -0.000000 -0.965926 -0.258819
vn -0.000000 -0.965926 -0.258819
vn -0.000000 -0.965926 -0.258819
vn -0.000000 -0.965926 -0.258819
vn -0.000000 -0.965926 0.258819
vn -0.000000 -0.965926 0.258819
vn -0.000000 -0.965926 0.258819
vn -0.000000 -0.965926 0.258819
vn -0.000000 -0.707107 0.707107
vn -0.000000 -0.707107 0.707107
vn -0.000000 -0.707107 0.707107
vn -0.000000 -0.707107 0.707107
vn -0.000000 -0.258819 0.965926
vn -0.000000 -0.258819 0.965926
vn -0.000000 -0.258819 0.965926
vn -0.000000 -0.258819 0.965926
vn 0.000000 0.258819 0.965926
vn 0.000000 0.258819 0.965926
vn 0.000000 0.258819 0.965926
vn 0.000000 0.258819 0.965926
vn 0.000000 0.707107 0.707107
vn 0.000000 0.707107 0.707107
vn 0.000000 0.707107 0.707107
vn 0.000000 0.707107 0.707107
vn 0.000000 0.965926 0.258819
vn 0.000000 0.965926 0.258819
vn 0.000000 0.965926 0.258819
vn 0.000000 0.965926 0.258819
vn 0.000000 0.965926 -0.258819
vn 0.000000 0.965926 -0.258819
vn 0.000000 0.965926 -0.258819
vn 0.000000 0.965926 -0.258819
vn 1.000000 -0.000000 0.000000
vn 1.000000 -0.000000 0.000000
vn 1.000000 -0.000000 0.000000
vn 1.000000 -0.000000 0.000000
vn 1.000000 -0.000000 0.000000
vn 1.000000 -0.000000 0.000000
vn 1.000000 -0.000000 0.000000
vn 1.000000 -0.000000 0.000000
vn 1.000000 -0.000000 0.000000
vn 1.000000 -0.000000 0.000000
vn 1.000000 -0.000000 0.000000
vn 1.000000 -0.000000 0.000000
vn 1.000000 -0.000000 0.000000
vn -1.000000 0.000000 0.000000
vn -1.000000 0.000000 0.000001
vn -1.000000 0.000000 0.000000
vn -1.000000 0.000000 0.000000
vn -1.000000 0.000000 0.000001
vn -1.000000 0.000000 -0.000001
vn -1.000000 0.000000 0.000000
vn -1.000000 0.000000 0.000000
vn -1.000000 0.000000 -0.000001
vn -1.000000 0.000000 0.000000
vn -1.000000 0.000000 -0.000001
vn -1.000000 0.000000 0.000001
vn -1.000000 0.000000 0.000000
vn 0.000000 0.707107 -0.707107
vn 0.000000 0.707107 -0.707107
vn 0.000000 0.258819 -0.965926
vn 0.000000 0.258819 -0.965926
vn -0.000000 -0.258819 -0.965926
vn -0.000000 -0.258819 -0.965926
vn -0.000000 -0.707107 -0.707107
vn -0.000000 -0.707107 -0.707107
vn -0.000000 -0.965926 -0.258819
vn -0.000000 -0.965926 -0.258819
vn -0.000000 -0.965926 0.258819
vn -0.000000 -0.965926 0.258819
vn -0.000000 -0.707107 0.707107
vn -0.000000 -0.707107 0.707107
vn -0.000000 -0.258819 0.965926
vn -0.000000 -0.258819 0.965926
vn 0.000000 0.258819 0.965926
vn 0.000000 0.258819 0.965926
vn 0.000000 0.707107 0.707107
vn 0.000000 0.707107 0.707107
vn 0.000000 0.965926 0.258819
vn 0.000000 0.965926 0.258819
vn 0.000000 0.965926 -0.258819
vn 0.000000 0.965926 -0.258819
s 1
g pasted__pCylinder1 group
usemtl pasted__blinn2SG
f 65/119/99 66/120/100 52/92/101 51/91/102
s 2
f 66/120/103 67/121/104 53/93/105 52/92/106
s 3
f 67/121/107 68/122/108 54/94/109 53/93/110
s 4
f 68/122/111 69/123/112 55/95/113 54/94/114
s 5
f 69/123/115 70/124/116 56/96/117 55/95/118
s 6
f 70/124/119 71/125/120 57/97/121 56/96/122
s 7
f 71/125/123 72/126/124 58/98/125 57/97/126
s 8
f 72/126/127 73/127/128 59/99/129 58/98/130
s 9
f 73/127/131 74/128/132 60/100/133 59/99/134
s 10
f 74/128/135 75/129/136 61/101/137 60/100/138
s 11
f 75/129/139 76/130/140 62/102/141 61/101/142
s 12
f 76/130/143 65/118/144 51/103/145 62/102/146
s 13
f 40/67/147 39/66/148 63/116/149
f 41/68/150 40/67/147 63/116/149
f 42/69/151 41/68/150 63/116/149
f 43/70/152 42/69/151 63/116/149
f 44/71/153 43/70/152 63/116/149
f 45/72/154 44/71/153 63/116/149
f 46/73/155 45/72/154 63/116/149
f 47/74/156 46/73/155 63/116/149
f 48/75/157 47/74/156 63/116/149
f 49/76/158 48/75/157 63/116/149
f 50/77/159 49/76/158 63/116/149
f 39/66/148 50/77/159 63/116/149
s 14
f 51/114/160 52/113/161 64/117/162
f 52/113/161 53/112/163 64/117/162
f 53/112/163 54/111/164 64/117/162
f 54/111/164 55/110/165 64/117/162
f 55/110/165 56/109/166 64/117/162
f 56/109/166 57/108/167 64/117/162
f 57/108/167 58/107/168 64/117/162
f 58/107/168 59/106/169 64/117/162
f 59/106/169 60/105/170 64/117/162
f 60/105/170 61/104/171 64/117/162
f 61/104/171 62/115/172 64/117/162
f 62/115/172 51/114/160 64/117/162
s 1
f 39/78/173 40/79/174 66/120/100 65/119/99
s 2
f 40/79/175 41/80/176 67/121/104 66/120/103
s 3
f 41/80/177 42/81/178 68/122/108 67/121/107
s 4
f 42/81/179 43/82/180 69/123/112 68/122/111
s 5
f 43/82/181 44/83/182 70/124/116 69/123/115
s 6
f 44/83/183 45/84/184 71/125/120 70/124/119
s 7
f 45/84/185 46/85/186 72/126/124 71/125/123
s 8
f 46/85/187 47/86/188 73/127/128 72/126/127
s 9
f 47/86/189 48/87/190 74/128/132 73/127/131
s 10
f 48/87/191 49/88/192 75/129/136 74/128/135
s 11
f 49/88/193 50/89/194 76/130/140 75/129/139
s 12
f 50/89/195 39/90/196 65/118/144 76/130/143
