# This file uses centimeters as units for non-parametric coordinates.

mtllib Vent.mtl
g default
v -0.908538 0.271605 0.064915
v 0.908538 0.271605 0.064915
v -0.908538 0.310683 0.073013
v 0.908538 0.310683 0.073013
v -0.908538 0.348439 -0.109174
v 0.908538 0.348439 -0.109174
vt 0.025931 0.998008
vt 0.025931 0.001992
vt 0.118397 0.001992
vt 0.118397 0.998008
vt 0.000236 0.998008
vt 0.000236 0.001992
vt 0.020069 0.001992
vt 0.020069 0.998008
vn 0.000000 -0.202925 0.979194
vn 0.000000 -0.202925 0.979194
vn 0.000000 -0.202925 0.979194
vn 0.000000 -0.202925 0.979194
vn 0.000000 0.979194 0.202927
vn 0.000000 0.979194 0.202927
vn 0.000000 0.979194 0.202927
vn 0.000000 0.979194 0.202927
s off
g pCube5 group1
usemtl blinn2SG
f 1/5/1 2/6/2 4/7/3 3/8/4
f 3/1/5 4/2/6 6/3/7 5/4/8
g default
v -0.908538 0.911182 0.064915
v 0.908538 0.911182 0.064915
v -0.908538 0.950261 0.073013
v 0.908538 0.950261 0.073013
v -0.908538 0.988017 -0.109175
v 0.908538 0.988017 -0.109175
vt 0.025931 0.998008
vt 0.025931 0.001992
vt 0.118397 0.001992
vt 0.118397 0.998008
vt 0.000236 0.998008
vt 0.000236 0.001992
vt 0.020070 0.001992
vt 0.020070 0.998008
vn 0.000000 -0.202919 0.979196
vn 0.000000 -0.202919 0.979196
vn 0.000000 -0.202919 0.979196
vn 0.000000 -0.202919 0.979196
vn 0.000000 0.979194 0.202926
vn 0.000000 0.979194 0.202926
vn 0.000000 0.979194 0.202926
vn 0.000000 0.979194 0.202926
s off
g group1 pCube2
usemtl blinn2SG
f 7/13/9 8/14/10 10/15/11 9/16/12
f 9/9/13 10/10/14 12/11/15 11/12/16
g default
v -0.908538 1.302875 0.064915
v 0.908538 1.302875 0.064915
v -0.908538 1.341953 0.073013
v 0.908538 1.341953 0.073013
v -0.908538 1.379709 -0.109174
v 0.908538 1.379709 -0.109174
vt 0.025931 0.998008
vt 0.025931 0.001992
vt 0.118397 0.001992
vt 0.118397 0.998008
vt 0.000236 0.998008
vt 0.000236 0.001992
vt 0.020069 0.001992
vt 0.020069 0.998008
vn 0.000000 -0.202927 0.979194
vn 0.000000 -0.202927 0.979194
vn 0.000000 -0.202927 0.979194
vn 0.000000 -0.202927 0.979194
vn 0.000000 0.979194 0.202927
vn 0.000000 0.979194 0.202927
vn 0.000000 0.979194 0.202927
vn 0.000000 0.979194 0.202927
s off
g group1 pCube7
usemtl blinn2SG
f 13/21/17 14/22/18 16/23/19 15/24/20
f 15/17/21 16/18/22 18/19/23 17/20/24
g default
v -0.908538 0.496571 0.064915
v 0.908538 0.496571 0.064915
v -0.908538 0.535648 0.073013
v 0.908538 0.535648 0.073013
v -0.908538 0.573405 -0.109174
v 0.908538 0.573405 -0.109174
vt 0.025931 0.998008
vt 0.025931 0.001992
vt 0.118397 0.001992
vt 0.118397 0.998008
vt 0.000236 0.998008
vt 0.000236 0.001992
vt 0.020069 0.001992
vt 0.020069 0.998008
vn 0.000000 -0.202926 0.979194
vn 0.000000 -0.202926 0.979194
vn 0.000000 -0.202926 0.979194
vn 0.000000 -0.202926 0.979194
vn 0.000000 0.979194 0.202927
vn 0.000000 0.979194 0.202927
vn 0.000000 0.979194 0.202927
vn 0.000000 0.979194 0.202927
s off
g group1 pCube4
usemtl blinn2SG
f 19/29/25 20/30/26 22/31/27 21/32/28
f 21/25/29 22/26/30 24/27/31 23/28/32
g default
v -0.908538 0.706656 0.064915
v 0.908538 0.706656 0.064915
v -0.908538 0.745733 0.073013
v 0.908538 0.745733 0.073013
v -0.908538 0.783490 -0.109174
v 0.908538 0.783490 -0.109174
vt 0.025931 0.998008
vt 0.025931 0.001992
vt 0.118397 0.001992
vt 0.118397 0.998008
vt 0.000236 0.998008
vt 0.000236 0.001992
vt 0.020070 0.001992
vt 0.020070 0.998008
vn 0.000000 -0.202927 0.979194
vn 0.000000 -0.202927 0.979194
vn 0.000000 -0.202927 0.979194
vn 0.000000 -0.202927 0.979194
vn 0.000000 0.979194 0.202927
vn 0.000000 0.979194 0.202927
vn 0.000000 0.979194 0.202927
vn 0.000000 0.979194 0.202927
s off
g group1 pCube6
usemtl blinn2SG
f 25/37/33 26/38/34 28/39/35 27/40/36
f 27/33/37 28/34/38 30/35/39 29/36/40
g default
v -0.908538 1.107023 0.064915
v 0.908538 1.107023 0.064915
v -0.908538 1.146101 0.073013
v 0.908538 1.146101 0.073013
v -0.908538 1.183857 -0.109175
v 0.908538 1.183857 -0.109175
vt 0.025931 0.998008
vt 0.025931 0.001992
vt 0.118397 0.001992
vt 0.118397 0.998008
vt 0.000236 0.998008
vt 0.000236 0.001992
vt 0.020069 0.001992
vt 0.020069 0.998008
vn 0.000000 -0.202927 0.979194
vn 0.000000 -0.202927 0.979194
vn 0.000000 -0.202927 0.979194
vn 0.000000 -0.202927 0.979194
vn 0.000000 0.979194 0.202926
vn 0.000000 0.979194 0.202926
vn 0.000000 0.979194 0.202926
vn 0.000000 0.979194 0.202926
s off
g group1 pCube3
usemtl blinn2SG
f 31/45/41 32/46/42 34/47/43 33/48/44
f 33/41/45 34/42/46 36/43/47 35/44/48
g default
v -0.896711 0.145414 -0.116836
v 0.896711 0.145414 -0.116836
v 0.896711 1.507571 -0.116836
v -0.896711 1.507571 -0.116836
vt 0.589195 0.539974
vt 0.589195 0.048624
vt 0.962390 0.048624
vt 0.962390 0.539974
vn 0.000000 0.000000 1.000000
vn 0.000000 0.000000 1.000000
vn 0.000000 0.000000 1.000000
vn 0.000000 0.000000 1.000000
s off
g group1 polySurface1 pCube1
usemtl lambert3SG
f 37/49/49 38/50/50 39/51/51 40/52/52
g default
v -1.057462 0.023318 0.083784
v 1.057462 0.023318 0.083784
v -1.057462 1.629667 0.083784
v 1.057462 1.629667 0.083784
v -1.057462 1.629667 -0.083784
v 1.057462 1.629667 -0.083784
v -1.057462 0.023318 -0.083784
v 1.057462 0.023318 -0.083784
v -0.896711 0.145414 0.083784
v 0.896711 0.145414 0.083784
v 0.896711 1.507571 0.083784
v -0.896711 1.507571 0.083784
v -0.896711 0.145414 -0.116836
v 0.896711 0.145414 -0.116836
v 0.896711 1.507571 -0.116836
v -0.896711 1.507571 -0.116836
vt 0.001992 0.581408
vt 0.001992 0.001973
vt 0.047901 0.001973
vt 0.047901 0.581408
vt 0.054809 0.581408
vt 0.054809 0.001973
vt 0.100718 0.001973
vt 0.100718 0.581408
vt 0.149101 0.779099
vt 0.149322 0.733191
vt 0.589415 0.735309
vt 0.589194 0.781218
vt 0.148850 0.831143
vt 0.149071 0.785234
vt 0.589164 0.787353
vt 0.588943 0.833262
vt 0.107430 0.581408
vt 0.107430 0.001973
vt 0.140881 0.046015
vt 0.140881 0.537366
vt 0.547528 0.001973
vt 0.514077 0.046015
vt 0.547528 0.581408
vt 0.514077 0.537366
vt 0.643604 0.652135
vt 0.152266 0.655724
vt 0.151865 0.600761
vt 0.643202 0.597172
vt 0.148821 0.837278
vt 0.522012 0.839075
vt 0.521747 0.894039
vt 0.148556 0.892242
vt 0.149616 0.672091
vt 0.640961 0.674457
vt 0.640697 0.729421
vt 0.149351 0.727055
vt 0.521453 0.955138
vt 0.148262 0.953341
vt 0.148526 0.898377
vt 0.521718 0.900174
vn 0.000000 1.000000 0.000000
vn 0.000000 1.000000 0.000000
vn 0.000000 1.000000 0.000000
vn 0.000000 1.000000 0.000000
vn 0.000000 -1.000000 0.000000
vn 0.000000 -1.000000 0.000000
vn 0.000000 -1.000000 0.000000
vn 0.000000 -1.000000 0.000000
vn 1.000000 0.000000 0.000000
vn 1.000000 0.000000 0.000000
vn 1.000000 0.000000 0.000000
vn 1.000000 0.000000 0.000000
vn -1.000000 0.000000 0.000000
vn -1.000000 0.000000 0.000000
vn -1.000000 0.000000 0.000000
vn -1.000000 0.000000 0.000000
vn 0.000000 0.000000 1.000000
vn 0.000000 0.000000 1.000000
vn 0.000000 0.000000 1.000000
vn 0.000000 0.000000 1.000000
vn 0.000000 0.000000 1.000000
vn 0.000000 0.000000 1.000000
vn 0.000000 0.000000 1.000000
vn 0.000000 0.000000 1.000000
vn 0.000000 0.000000 1.000000
vn 0.000000 0.000000 1.000000
vn 0.000000 0.000000 1.000000
vn 0.000000 0.000000 1.000000
vn -0.000000 0.000000 1.000000
vn -0.000000 0.000000 1.000000
vn -0.000000 0.000000 1.000000
vn -0.000000 0.000000 1.000000
vn 0.000000 1.000000 0.000000
vn 0.000000 1.000000 0.000000
vn 0.000000 1.000000 0.000000
vn 0.000000 1.000000 0.000000
vn -1.000000 0.000000 0.000000
vn -1.000000 0.000000 0.000000
vn -1.000000 0.000000 0.000000
vn -1.000000 0.000000 0.000000
vn 0.000000 -1.000000 0.000000
vn 0.000000 -1.000000 0.000000
vn 0.000000 -1.000000 0.000000
vn 0.000000 -1.000000 0.000000
vn 1.000000 0.000000 0.000000
vn 1.000000 0.000000 0.000000
vn 1.000000 0.000000 0.000000
vn 1.000000 0.000000 0.000000
s off
g group1 pCube1 polySurface2
usemtl blinn2SG
f 43/53/53 44/54/54 46/55/55 45/56/56
f 47/57/57 48/58/58 42/59/59 41/60/60
f 42/61/61 48/62/62 46/63/63 44/64/64
f 47/65/65 41/66/66 43/67/67 45/68/68
f 41/69/69 42/70/70 50/71/71 49/72/72
f 42/70/73 44/73/74 51/74/75 50/71/76
f 44/73/77 43/75/78 52/76/79 51/74/80
f 43/75/81 41/69/82 49/72/83 52/76/84
f 49/77/85 50/78/86 54/79/87 53/80/88
f 50/81/89 51/82/90 55/83/91 54/84/92
f 51/85/93 52/86/94 56/87/95 55/88/96
f 52/89/97 49/90/98 53/91/99 56/92/100
